<svg id="Capa_1" enable-background="new 0 0 512 512" height="512" viewBox="0 0 512 512" width="512" xmlns="http://www.w3.org/2000/svg"><g><g><g clip-rule="evenodd" fill-rule="evenodd"><path d="m7.5 107.238v226.999c0 8.284 6.716 15 15 15h176.5l57 66.5 57-66.5h176.5c8.284 0 15-6.716 15-15v-226.999c0-8.284-6.716-15-15-15h-467c-8.284 0-15 6.716-15 15zm107.397 85.723v-15.118c0-22.333 18.272-40.605 40.605-40.605s40.605 18.272 40.605 40.605v15.118c0 16.254-9.679 30.358-23.562 36.829l36.456 14.407c15.344 6.064 30 13.504 30 30v30.041h-166.998v-30.041c0-16.499 14.655-23.936 30-30l36.452-14.406c-13.879-6.473-23.558-20.576-23.558-36.83z" fill="#e4ecf4"/><path d="m114.897 192.961c0 22.609 18.557 40.605 40.605 40.605 22.215 0 40.605-18.154 40.605-40.605v-15.118c0-22.333-18.271-40.605-40.605-40.605-22.333 0-40.605 18.272-40.605 40.605z" fill="#fedbad"/><path d="m102.003 244.197c-15.344 6.064-30 13.501-30 30v30.041h166.999v-30.041c0-16.496-14.655-23.936-30-30l-36.453-14.406c-10.743 5.011-23.348 5.014-34.09-.002-.193.194-33.119 13.089-36.456 14.408z" fill="#afd1f2"/><path d="m7.5 107.238v226.999c0 8.284 6.716 15 15 15h22.5c-8.284 0-15-6.716-15-15v-226.999c0-8.284 6.716-15 15-15h-22.5c-8.284 0-15 6.716-15 15z" fill="#c6daec"/><path d="m102.003 244.197c-15.344 6.064-30 13.501-30 30v30.041h22.5v-30.041c0-16.499 14.655-23.936 30-30 2.211-.874 17.4-6.825 27.462-10.801-4.641-.404-9.221-1.606-13.506-3.606-.193.193-33.119 13.088-36.456 14.407z" fill="#99c5f2"/><path d="m114.897 192.961c0 27.077 26.208 46.469 51.865 39.002-16.768-4.88-29.366-20.374-29.366-39.002v-15.118c0-18.434 12.45-34.099 29.355-39.008-25.667-7.452-51.855 11.93-51.855 39.008v15.118z" fill="#fab684"/></g><g><path d="m45 326.739h-15v-15.001h15zm0-30.001h-15v-45h15zm164.002-14.999h-15v-15h15zm272.998-92.001h-15v-45h15zm0-60h-15v-15h15z" fill="#fff"/></g></g><g><path d="m256 404.213-53.551-62.476h-179.949c-4.136 0-7.5-3.364-7.5-7.5v-227c0-4.136 3.364-7.5 7.5-7.5h37.499v-15h-37.499c-12.406 0-22.5 10.094-22.5 22.5v227c0 12.406 10.094 22.5 22.5 22.5h173.05l60.45 70.525 60.449-70.524h120.551v-15h-127.45z"/><path d="m489.5 84.738h-414.5v15h414.5c4.136 0 7.5 3.364 7.5 7.5v227c0 4.136-3.364 7.5-7.5 7.5h-37.5v15h37.5c12.406 0 22.5-10.094 22.5-22.5v-227c0-12.406-10.094-22.5-22.5-22.5z"/><path d="m148.002 296.739h-68.499v-22.542c0-10.909 9.26-16.703 25.256-23.025l33.595-13.276c5.331 2.042 11.109 3.171 17.149 3.171s11.818-1.129 17.148-3.171l33.595 13.276c15.996 6.321 25.256 12.115 25.256 23.025v22.542h-68.499v15h83.499v-37.542c0-23.246-22.601-32.177-34.743-36.975l-23.344-9.225c9.342-8.781 15.193-21.235 15.193-35.036v-15.118c0-26.524-21.58-48.104-48.104-48.104-26.525 0-48.105 21.58-48.105 48.104v15.118c0 13.802 5.851 26.256 15.193 35.036l-23.344 9.225c-12.142 4.799-34.743 13.731-34.743 36.975v37.542h83.499v-15zm-25.605-118.897c0-18.254 14.851-33.104 33.105-33.104s33.104 14.851 33.104 33.104v15.118c0 18.255-14.851 33.105-33.104 33.105-18.254 0-33.105-14.851-33.105-33.105z"/><path d="m291.501 311.738v-182h-30v15h15v167z"/><path d="m380.749 203.131-31.827-73.393h-34.922v182h15v-167h10.078l41.671 96.096 41.67-96.096h10.078v167h15v-182h-34.922z"/></g></g></svg>